<svg width="745" height="693" viewBox="0 0 745 693" fill="none" xmlns="http://www.w3.org/2000/svg">
<g clip-path="url(#clip0_165_321)">
<path fill-rule="evenodd" clip-rule="evenodd" d="M745 212.544C745 262.138 729.065 307.765 702.355 343.924C695.426 355.83 688.041 367.645 680.12 379.466L597.17 383.282L743.464 186.031C744.478 194.717 745 203.566 745 212.544ZM743.184 183.735C737.275 137.253 717.269 95.5439 687.906 63.6597L630.785 204.965L743.184 183.735ZM632.982 21.4409C606.596 7.70732 576.944 0 545.603 0C470.02 0 404.258 44.827 370.442 110.9C336.997 44.827 271.959 7.18061e-06 197.206 7.18061e-06C88.2921 7.18061e-06 0 95.1592 0 212.544C0 263.546 16.6676 310.353 44.4524 346.981C115.771 468.725 218.104 557.887 365.99 686.74L372.5 692.412C512.417 573.401 599.942 488.801 659.877 408.12L325.898 597.878L519.83 334.233L400.68 357.231L546.509 161.962L447.307 179.778L632.982 21.4409Z" fill="url(#paint0_linear_165_321)"/>
</g>
<defs>
<linearGradient id="paint0_linear_165_321" x1="372.5" y1="0" x2="372.5" y2="692.412" gradientUnits="userSpaceOnUse">
<stop stop-color="#19FF00"/>
<stop offset="0.723958" stop-color="#0F7A04"/>
</linearGradient>
<clipPath id="clip0_165_321">
<rect width="745" height="692.412" fill="white"/>
</clipPath>
</defs>
</svg>
